# xmcd
#
# Track frame offsets:
#	150
#	11472
#	25497
#	42544
#	62946
#	75854
#	96004
#	106977
#	128396
#	143731
#
# Disc length: 2436 seconds
#
# Revision: 0
# Processed by: cddbd v1.5.2PL0 Copyright (c) Steve Scherf et al.
# Submitted via: EZCDAudioConverter 2.1.5.1
#
DISCID=7509820a
DTITLE=Aino Venna - Tin roof
DYEAR=2014
DGENRE=
TTITLE0=Mocking Bird
TTITLE1=Une Etudé En Rouge
TTITLE2=Tin Roof
TTITLE3=I Forgot You
TTITLE4=Woman On Horizon
TTITLE5=Sons Of Nakhimov
TTITLE6=Madeira Song
TTITLE7=List By Steven
TTITLE8=They Have Escaped
TTITLE9=Gravity
EXTD=
EXTT0=
EXTT1=
EXTT2=
EXTT3=
EXTT4=
EXTT5=
EXTT6=
EXTT7=
EXTT8=
EXTT9=
PLAYORDER=
